<?xml version="1.0" encoding="iso-8859-1"?>
<!-- Generator: Adobe Illustrator 19.0.0, SVG Export Plug-In . SVG Version: 6.00 Build 0)  -->
<svg version="1.1" id="Layer_1" xmlns="http://www.w3.org/2000/svg" xmlns:xlink="http://www.w3.org/1999/xlink" x="0px" y="0px"
	 viewBox="0 0 512.002 512.002" style="enable-background:new 0 0 512.002 512.002;" xml:space="preserve">
<rect x="19.503" y="328.896" style="fill:#62D9C7;" width="101.818" height="96.851"/>
<polygon style="fill:#298983;" points="256.663,309.39 310.054,256.001 256.663,202.611 135.23,202.611 32.642,309.39 "/>
<rect x="238.799" y="100.209" transform="matrix(-0.7071 -0.7071 0.7071 -0.7071 421.84 481.9322)" style="fill:#A5F2E5;" width="143.864" height="106.783"/>
<path d="M509.151,248.926L304.516,44.291c-3.81-3.808-9.983-3.808-13.791,0l-89.295,89.295c-1.829,1.828-2.857,4.309-2.857,6.895
	c0,2.586,1.027,5.067,2.857,6.895l35.732,35.732H131.076c-1.701,0-3.299,0.437-4.691,1.203c-0.034,0.02-0.066,0.042-0.101,0.061
	c-0.242,0.137-0.48,0.281-0.709,0.437c-0.085,0.057-0.164,0.124-0.246,0.183c-0.174,0.127-0.348,0.255-0.514,0.393
	c-0.096,0.081-0.187,0.17-0.281,0.255c-0.144,0.13-0.289,0.26-0.424,0.399c-0.021,0.022-0.046,0.04-0.066,0.062L2.72,312.386
	c-0.036,0.038-0.064,0.081-0.099,0.12c-0.259,0.278-0.501,0.571-0.726,0.876c-0.047,0.062-0.095,0.124-0.14,0.187
	c-0.242,0.346-0.46,0.709-0.657,1.086c-0.034,0.066-0.064,0.134-0.096,0.202c-0.166,0.338-0.313,0.686-0.439,1.045
	c-0.022,0.061-0.047,0.121-0.068,0.183c-0.133,0.402-0.239,0.813-0.32,1.235c-0.013,0.073-0.021,0.146-0.034,0.218
	c-0.057,0.342-0.095,0.69-0.114,1.044c-0.007,0.112-0.014,0.221-0.017,0.333C0.009,318.992,0,319.066,0,319.142v116.352
	c0,5.385,4.366,9.751,9.751,9.751h121.324c5.385,0,9.751-4.366,9.751-9.751V328.893h96.335l-35.732,35.732
	c-1.829,1.828-2.857,4.309-2.857,6.895s1.027,5.067,2.857,6.895l89.295,89.295c1.829,1.828,4.309,2.857,6.896,2.857
	c2.587,0,5.065-1.027,6.896-2.857l49.938-49.938c3.808-3.808,3.808-9.983,0-13.79l0,0c-3.81-3.808-9.983-3.808-13.791,0
	l-43.041,43.043l-75.506-75.504l190.845-190.844l75.504,75.504l-98.392,98.392c-3.808,3.808-3.808,9.983,0,13.79l0,0
	c3.81,3.808,9.983,3.808,13.791,0l105.286-105.286c1.95-1.95,2.894-4.519,2.847-7.074
	C512.044,253.446,511.1,250.875,509.151,248.926z M19.503,425.742v-96.85h101.821v96.85H19.503z M32.642,309.39L135.23,202.611
	h121.435l53.389,53.39l-53.389,53.39L32.642,309.39L32.642,309.39z M222.115,140.482l75.506-75.504l101.728,101.728l-75.504,75.506
	L222.115,140.482z"/>
<path style="fill:#62D9C7;" d="M390.074,354.572l98.392-98.392l-75.504-75.504L222.115,371.52l75.506,75.504l43.041-43.043
	c3.81-3.808,9.982-3.808,13.791,0l35.62-35.62C386.266,364.554,386.266,358.38,390.074,354.572z"/>
<g>
</g>
<g>
</g>
<g>
</g>
<g>
</g>
<g>
</g>
<g>
</g>
<g>
</g>
<g>
</g>
<g>
</g>
<g>
</g>
<g>
</g>
<g>
</g>
<g>
</g>
<g>
</g>
<g>
</g>
</svg>
